<?xml version="1.0" encoding="utf-8"?>
<!-- Generator: Adobe Illustrator 24.3.0, SVG Export Plug-In . SVG Version: 6.00 Build 0)  -->
<svg version="1.1" id="Layer_1" xmlns="http://www.w3.org/2000/svg" xmlns:xlink="http://www.w3.org/1999/xlink" x="0px" y="0px"
	 viewBox="0 0 100 100" style="enable-background:new 0 0 100 100;" xml:space="preserve">
<style type="text/css">
	.st0{fill:#006064;}
	.st1{fill:#DC3545;}
</style>
<g>
	<path class="st0" d="M87.2,93.9L74.8,81.6l0.7-0.7c2.1-2.1,2.1-5.4,0-7.5l-2.8-2.8l1.7-1.7c1.7-1.7,2-4.2,0.9-6.2
		c0-0.1-0.1-0.1-0.1-0.2c-0.1-0.2-0.3-0.4-0.4-0.5c-0.5-0.5-1.3-0.6-1.8-0.2c0,0,0,0,0,0l0,0c-0.5,0.5-0.5,1.3-0.1,1.8
		c0,0.1,0.1,0.1,0.2,0.2l0,0.1c0.5,1,0.3,2.3-0.5,3.2L58.2,81.3c-1,1-2.8,1-3.8,0l0,0l-4-4l5.4-5.4c0.5-0.5,0.5-1.4,0-1.9
		c-0.5-0.5-1.4-0.5-1.9,0l0,0l-5.4,5.4l-4.7-4.7l5.4-5.4c0.5-0.5,0.5-1.4,0-1.9c-0.5-0.5-1.4-0.5-1.9,0l-5.4,5.4l-4.7-4.7l5.4-5.4
		c0.5-0.5,0.5-1.4,0-1.9c-0.5-0.5-1.4-0.5-1.9,0l0,0l-5.4,5.4l-4.7-4.7l5.4-5.4c0.5-0.5,0.5-1.4,0-1.9s-1.4-0.5-1.9,0l0,0l-5.4,5.4
		L24,50.9l5.4-5.4c0.5-0.5,0.5-1.4,0-1.9c-0.5-0.5-1.4-0.5-1.9,0l0,0l-5.4,5.4l-5.9-5.9L34.3,25l2.5,2.5c0.5,0.5,1.4,0.5,1.9,0
		s0.5-1.4,0-1.9l-2.4-2.4l0.8-0.8l0,0c1.9-1.9,1.9-5,0-6.9c-1.9-1.9-5-1.9-6.9,0l0,0L19.4,26.2l-7-7l7.1-7.1c0.5-0.5,0.5-1.4,0-1.9
		c-0.5-0.5-1.4-0.5-1.9,0l-16,16c-0.5,0.5-0.4,1.4,0.1,1.9c0.5,0.5,1.3,0.5,1.8,0l7.1-7.1l7,7L6.9,38.8c-1.9,1.9-1.9,5,0,6.9
		s5,1.9,6.9,0l0,0l0.7-0.7l38.1,38.1c1,1,2.4,1.6,3.8,1.6c1.4,0,2.8-0.6,3.8-1.6l1.7-1.7l2.8,2.9c2.1,2.1,5.4,2.1,7.5,0l0.8-0.8
		l12.3,12.3c0.5,0.5,1.4,0.5,1.9,0C87.6,95.3,87.6,94.5,87.2,93.9L87.2,93.9z M11.9,43.8c-0.9,0.8-2.3,0.8-3.1-0.1
		c-0.8-0.9-0.8-2.2,0-3.1L32,17.3c0.9-0.9,2.3-0.9,3.1,0c0.9,0.9,0.9,2.3,0,3.1l-0.8,0.8l0,0L12.5,43.2l0,0L11.9,43.8z M73.7,79.1
		l-1.6,1.6L72,80.7c0,0,0,0-0.1,0.1l-1.7,1.7c-1,1-2.8,1-3.8,0l0,0l-2.8-2.9l7.2-7.2l2.8,2.8C74.6,76.3,74.5,78,73.7,79.1z"/>
	<path class="st1" d="M69.4,22.9c-4.9,0-8.8,4-8.8,8.8s4,8.8,8.8,8.8s8.8-4,8.8-8.8l0,0C78.1,26.8,74.2,22.9,69.4,22.9z M69.4,37.9
		c-3.4,0-6.2-2.8-6.2-6.2s2.8-6.2,6.2-6.2s6.2,2.8,6.2,6.2l0,0C75.5,35.1,72.8,37.9,69.4,37.9z"/>
	<path class="st1" d="M98.6,22.1l-1.8-4.2c-0.3-0.7-1-1-1.7-0.7c-0.7,0.3-1,1-0.7,1.7l0,0l0.4,0.9l-7.5,3.1c-0.8-1.6-1.8-3-2.9-4.4
		l2.6-2.6l0.7,0.7c0.5,0.5,1.4,0.5,1.9,0c0.5-0.5,0.5-1.4,0-1.9l0,0l-3.2-3.2c-0.5-0.5-1.4-0.5-1.9,0s-0.5,1.4,0,1.9l0,0l0.7,0.7
		l-2.6,2.6c-1.3-1.1-2.8-2.1-4.4-2.9l2.5-6l0.9,0.4C82.2,8.4,83,8,83.2,7.3c0.2-0.6-0.1-1.4-0.7-1.7l-4.2-1.7
		c-0.7-0.3-1.4,0.1-1.7,0.8c-0.2,0.6,0.1,1.4,0.7,1.7l0.9,0.4l-2.5,6c-1.7-0.6-3.3-0.9-5.1-1V6.5h1c0.7,0,1.3-0.6,1.3-1.3
		s-0.6-1.3-1.3-1.3H67c-0.7,0-1.3,0.6-1.3,1.3s0.6,1.3,1.3,1.3l0,0h1v5.2c-1.7,0.1-3.3,0.4-4.9,0.9l-1-2.4L63,9.9
		c0.7-0.3,1-1,0.7-1.7c-0.3-0.7-1-1-1.7-0.7l0,0l-4.2,1.7c-0.7,0.3-1,1-0.7,1.7c0.3,0.7,1,1,1.7,0.7l0.9-0.4l1,2.4
		c-1.6,0.8-3.1,1.8-4.5,3L53,13.5l0.7-0.7c0.5-0.5,0.5-1.4,0-1.9s-1.4-0.5-1.9,0l0,0l-3.2,3.2c-0.5,0.5-0.5,1.4,0,1.9
		c0.5,0.5,1.4,0.5,1.9,0l0.7-0.7l3.1,3.1c-1.1,1.3-2.1,2.8-2.9,4.4l-5.6-2.4l0.4-0.9c0.3-0.7,0-1.4-0.7-1.7c-0.7-0.3-1.4,0-1.7,0.7
		l0,0l-1.8,4.2c-0.3,0.7,0,1.4,0.7,1.7s1.4,0,1.7-0.7l0.4-0.9l5.6,2.4c-0.5,1.7-0.9,3.3-1,5.1h-3v-1c0-0.7-0.6-1.3-1.3-1.3
		s-1.3,0.6-1.3,1.3l0,0V34c0,0.7,0.6,1.3,1.3,1.3s1.3-0.6,1.3-1.3l0,0v-1h3c0.1,1.7,0.4,3.4,1,5l-5.8,2.4l-0.4-0.9
		c-0.3-0.7-1-1-1.7-0.7c-0.7,0.3-1,1-0.7,1.7l1.7,4.2c0.3,0.7,1,1,1.7,0.7c0.7-0.3,1-1,0.7-1.7c0,0,0,0,0,0L45.5,43l5.8-2.4
		c0.8,1.6,1.8,3.1,2.9,4.4L51.1,48l-0.7-0.7c-0.5-0.5-1.4-0.5-1.9,0s-0.5,1.4,0,1.9l3.2,3.2c0.5,0.5,1.4,0.5,1.9,0
		c0.5-0.5,0.5-1.4,0-1.9L53,49.9l3.1-3.1c1.3,1.1,2.7,2.1,4.3,2.9l-2.8,6.6l-0.9-0.4c-0.7-0.3-1.4,0.1-1.7,0.8
		c-0.2,0.6,0.1,1.4,0.7,1.7l4.2,1.7c0.7,0.2,1.4-0.2,1.6-0.9c0.2-0.6-0.1-1.2-0.6-1.5l-0.9-0.4l2.8-6.6c1.7,0.6,3.4,0.9,5.1,1V56h-1
		c-0.7,0-1.3,0.6-1.3,1.4c0,0.7,0.6,1.2,1.3,1.3h4.7c0.7,0,1.3-0.6,1.3-1.4c0-0.7-0.6-1.2-1.3-1.3h-1v-4.4c1.7-0.1,3.4-0.4,5.1-1
		l1.1,2.7L76,53.8c-0.7,0.3-1,1-0.7,1.7c0.3,0.7,1,1,1.7,0.7l4.2-1.8c0.7-0.3,1-1,0.7-1.7c-0.3-0.7-1-1-1.7-0.7l-0.9,0.4l-1.1-2.7
		c1.6-0.8,3-1.7,4.3-2.9l4,4l-0.7,0.7c-0.5,0.5-0.5,1.4,0,1.9c0.5,0.5,1.4,0.5,1.9,0l3.2-3.2c0.5-0.5,0.5-1.4,0-1.9
		c-0.5-0.5-1.4-0.5-1.9,0l0,0l-0.7,0.7l-4-4c1.1-1.3,2.1-2.7,2.9-4.3l6,2.5L92.9,44c-0.3,0.7,0,1.4,0.7,1.7s1.4,0,1.7-0.7l1.7-4.2
		c0.3-0.7,0-1.4-0.7-1.7s-1.4,0-1.7,0.7c0,0,0,0,0,0l-0.4,0.9l-6-2.5c0.6-1.7,0.9-3.4,1-5.1h4.3v1c0,0.7,0.6,1.3,1.4,1.3
		c0.7,0,1.2-0.6,1.3-1.3v-4.6c0-0.7-0.6-1.3-1.4-1.3c-0.7,0-1.2,0.6-1.3,1.3v1h-4.3c-0.1-1.7-0.4-3.4-1-5.1l7.5-3.1l0.4,0.9
		c0.3,0.7,1.1,0.9,1.7,0.6C98.5,23.4,98.8,22.7,98.6,22.1L98.6,22.1z M86.7,31.7c0,1.8-0.3,3.7-0.9,5.4l-1.7-0.7
		c-0.7-0.3-1.4,0-1.7,0.7c-0.3,0.7,0,1.4,0.7,1.7l1.7,0.7c-1.7,3.3-4.4,6-7.7,7.7l-1.4-3.4c-0.3-0.7-1-1-1.7-0.7
		c-0.7,0.3-1,1-0.7,1.7l1.4,3.4c-3.5,1.1-7.3,1.1-10.8,0l0.7-1.7c0.3-0.7-0.1-1.4-0.8-1.7c-0.6-0.2-1.4,0.1-1.7,0.7l-0.7,1.7
		c-3.3-1.7-6-4.4-7.7-7.7l3-1.3c0.7-0.3,1-1,0.7-1.7c-0.3-0.7-1-1-1.7-0.7l-3,1.3c-0.5-1.6-0.8-3.3-0.8-5c0.1-0.2,0.1-0.5,0-0.7
		c0-1.7,0.3-3.4,0.8-5l2,0.8c0.7,0.3,1.4,0,1.7-0.7c0.3-0.7,0-1.4-0.7-1.7l-2-0.8c1.7-3.4,4.5-6.1,7.9-7.8l1.4,3.4
		c0.3,0.7,1,1,1.7,0.7c0.7-0.3,1-1,0.7-1.7c0,0,0,0,0,0l-1.4-3.3c3.4-1.1,7.1-1,10.6,0.1L74,17.1c-0.3,0.7,0.1,1.4,0.8,1.7
		c0.6,0.2,1.4-0.1,1.7-0.7l0.7-1.8c1.5,0.8,2.9,1.8,4.2,3c0.1,0.1,0.1,0.2,0.2,0.3c0.1,0.1,0.2,0.2,0.3,0.2c1.2,1.3,2.2,2.7,3,4.2
		L82.2,25c-0.7,0.3-0.9,1.1-0.6,1.7c0.3,0.6,1,0.9,1.7,0.7l2.7-1.1C86.4,28,86.7,29.8,86.7,31.7L86.7,31.7z"/>
</g>
</svg>
